# xmcd
#
# Track frame offsets: 
#        150
#        11202
#        25697
#        42935
#        63342
#        87762
#        106972
#        123492
#        143325
#        164242
#        180727
#        198407
#        221720
#
# Disc length: 3014 seconds
#
# Revision: 2
# Processed by: cddbd v1.5.2PL0 Copyright (c) Steve Scherf et al.
# Submitted via: ExactAudioCopy v0.95a3
#
DISCID=b40bc40d
DTITLE=Darryl Purpose - Right Side Of Zero (Tangible Music 56802-2)
DYEAR=1996
DGENRE=Folk/Rock
TTITLE0=Rootwing
TTITLE1=The Island Song
TTITLE2=Victory In The Struggle
TTITLE3=Paint The Sky
TTITLE4=Sleep
TTITLE5=Right Side Of Zero
TTITLE6=I Will Run
TTITLE7=Don't Tear Down
TTITLE8=I Can't Tell You
TTITLE9=Where You Can Find Me
TTITLE10=Miss Yoo
TTITLE11=Old Rock and Roll Song (Karen's Song)
TTITLE12=Rootwing Reprise
EXTD=
EXTT0=
EXTT1=
EXTT2=
EXTT3=
EXTT4=
EXTT5=
EXTT6=
EXTT7=
EXTT8=
EXTT9=
EXTT10=
EXTT11=
EXTT12=
PLAYORDER=
